<?xml version="1.0" standalone="no"?>
<!DOCTYPE svg PUBLIC "-//W3C//DTD SVG 20010904//EN"
 "http://www.w3.org/TR/2001/REC-SVG-20010904/DTD/svg10.dtd">
<svg version="1.0" xmlns="http://www.w3.org/2000/svg"
 width="300.000000pt" height="300.000000pt" viewBox="0 0 300.000000 300.000000"
 preserveAspectRatio="xMidYMid meet">
<metadata>
Created by potrace 1.10, written by Peter Selinger 2001-2011
</metadata>
<g transform="translate(0.000000,300.000000) scale(0.100000,-0.100000)"
fill="#000000" stroke="none">
<path d="M1607 2440 c-110 -28 -258 -105 -357 -185 -41 -33 -150 -148 -150
-157 0 -12 4 -9 105 82 141 126 316 216 468 240 202 33 385 -62 471 -243 33
-69 66 -196 66 -253 0 -20 17 -45 61 -91 l62 -64 -64 -39 -64 -38 -21 -82 -21
-81 119 3 118 3 0 -70 c0 -192 -99 -348 -272 -430 -69 -33 -207 -63 -228 -50
-5 3 -51 -38 -102 -91 -149 -154 -287 -246 -441 -293 -248 -76 -469 12 -572
227 -32 65 -47 79 -39 36 6 -33 27 -75 67 -134 54 -78 87 -105 192 -155 108
-51 290 -44 420 15 24 11 49 20 54 20 6 0 11 5 11 12 0 6 3 8 7 5 3 -4 20 4
37 16 17 13 45 30 62 39 60 29 252 201 281 251 5 9 30 17 63 20 132 14 200 38
281 99 138 105 209 247 209 420 0 85 -17 97 -133 98 l-89 0 6 42 c7 48 13 56
82 101 64 43 63 68 -3 138 -36 38 -50 61 -55 92 -21 134 -38 189 -83 272 -30
54 -93 128 -137 161 -97 74 -267 101 -411 64z"/>
<path d="M1485 2317 c-125 -42 -227 -104 -330 -201 -40 -37 -54 -56 -42 -56 9
0 17 5 17 10 0 6 5 10 11 10 7 0 22 11 35 25 27 30 215 147 264 164 158 57
302 53 398 -10 24 -16 46 -29 50 -29 22 -2 122 -167 122 -202 0 -10 -20 -12
-78 -10 -143 6 -280 -46 -383 -147 -32 -31 -59 -53 -59 -49 0 4 15 37 32 73
46 93 41 99 -99 103 -82 2 -113 -1 -121 -11 -10 -11 -98 -198 -161 -342 -39
-88 -75 -154 -82 -149 -7 4 -81 151 -85 169 -6 25 -138 302 -152 318 -21 24
-212 25 -236 1 -9 -8 -16 -17 -16 -18 0 -4 278 -591 376 -795 41 -84 74 -157
74 -161 0 -4 9 -15 19 -24 19 -17 21 -17 40 1 10 10 47 77 82 148 34 72 96
202 138 289 l76 159 6 -104 c4 -68 13 -125 27 -164 21 -56 80 -152 126 -203
24 -25 112 -92 124 -92 4 0 15 -6 24 -14 15 -11 12 -17 -32 -63 -102 -105
-283 -219 -380 -238 -19 -4 -39 -10 -44 -12 -18 -12 -112 -13 -169 -2 -56 10
-123 37 -151 60 -45 37 -66 60 -94 101 -39 57 -56 70 -41 31 62 -163 253 -260
441 -223 207 40 419 189 586 413 l65 87 52 0 c121 0 247 85 280 188 l7 23
-116 -3 c-64 -2 -116 -2 -116 0 0 2 13 40 29 85 45 128 64 238 64 367 0 239
-82 404 -241 482 -60 30 -76 33 -167 35 -83 3 -112 -1 -170 -20z m530 -338 c3
-4 9 -47 12 -97 l6 -90 -54 15 c-121 32 -255 -25 -332 -143 -36 -54 -61 -155
-52 -213 15 -106 89 -212 177 -257 32 -16 46 -29 42 -37 -4 -7 -28 -40 -52
-74 l-45 -62 -50 27 c-82 45 -160 129 -207 225 -38 76 -43 95 -47 174 -3 50 0
112 6 145 38 179 193 338 374 384 52 13 210 15 222 3z m-717 -492 c-206 -431
-248 -513 -248 -478 0 5 -99 218 -221 473 -121 254 -223 469 -226 476 -4 9 19
12 98 12 l104 -1 100 -217 c54 -119 112 -245 128 -280 l29 -62 128 277 129
278 103 5 c57 3 104 5 105 4 2 0 -102 -219 -229 -487z m693 282 l41 -13 -7
-68 c-3 -38 -11 -81 -16 -96 l-9 -28 -98 4 c-100 4 -148 -6 -158 -32 -6 -16
45 -132 78 -178 16 -23 27 -28 63 -28 26 0 45 5 48 13 3 10 9 10 26 0 12 -8
56 -13 106 -13 47 0 85 -4 85 -9 0 -24 -93 -98 -142 -114 -61 -19 -177 -25
-186 -10 -4 6 -25 20 -48 31 -90 46 -142 137 -145 254 -1 62 3 85 24 131 61
133 200 197 338 156z m-1 -236 c0 -1 -14 -39 -30 -85 l-30 -83 -46 3 -45 4
-37 77 c-20 42 -37 78 -39 81 -2 3 49 5 112 5 63 0 115 -1 115 -2z"/>
</g>
</svg>
