<?xml version="1.0" standalone="no"?>
<!DOCTYPE svg PUBLIC "-//W3C//DTD SVG 20010904//EN"
 "http://www.w3.org/TR/2001/REC-SVG-20010904/DTD/svg10.dtd">
<svg version="1.0" xmlns="http://www.w3.org/2000/svg"
 width="300.000000pt" height="300.000000pt" viewBox="0 0 300.000000 300.000000"
 preserveAspectRatio="xMidYMid meet">
<metadata>
Created by potrace 1.10, written by Peter Selinger 2001-2011
</metadata>
<g transform="translate(0.000000,300.000000) scale(0.100000,-0.100000)"
fill="#000000" stroke="none">
<path d="M0 1500 l0 -1500 1500 0 1500 0 0 1500 0 1500 -1500 0 -1500 0 0
-1500z m1899 935 c48 -17 96 -41 119 -59 44 -33 107 -107 137 -161 45 -83 62
-138 83 -272 5 -31 19 -54 55 -92 66 -70 67 -95 3 -138 -69 -45 -75 -53 -82
-101 l-6 -42 89 0 c116 -1 133 -13 133 -98 0 -173 -71 -315 -209 -420 -81 -61
-149 -85 -281 -99 -33 -3 -58 -11 -63 -20 -29 -50 -221 -222 -281 -251 -17 -9
-45 -26 -62 -39 -17 -12 -34 -20 -37 -16 -4 3 -7 1 -7 -5 0 -7 -5 -12 -11 -12
-5 0 -30 -9 -54 -20 -130 -59 -312 -66 -420 -15 -105 50 -138 77 -192 155 -40
59 -61 101 -67 134 -8 43 7 29 39 -36 103 -215 324 -303 572 -227 154 47 292
139 441 293 51 53 97 94 102 91 21 -13 159 17 228 50 173 82 272 238 272 430
l0 70 -118 -3 -119 -3 21 81 21 82 64 38 64 39 -62 64 c-44 46 -61 71 -61 91
0 57 -33 184 -66 253 -86 181 -269 276 -471 243 -152 -24 -327 -114 -468 -240
-101 -91 -105 -94 -105 -82 0 9 109 124 150 157 99 80 247 157 357 185 91 23
221 21 292 -5z m-77 -133 c159 -78 241 -243 241 -482 0 -129 -19 -239 -64
-367 -16 -45 -29 -83 -29 -85 0 -2 52 -2 116 0 l116 3 -7 -23 c-33 -103 -159
-188 -280 -188 l-52 0 -65 -87 c-290 -388 -699 -532 -927 -327 -51 46 -81 87
-100 137 -15 39 2 26 41 -31 28 -41 49 -64 94 -101 28 -23 95 -50 151 -60 57
-11 151 -10 169 2 5 2 25 8 44 12 97 19 278 133 380 238 44 46 47 52 32 63 -9
8 -20 14 -24 14 -12 0 -100 67 -124 92 -46 51 -105 147 -126 203 -14 39 -23
96 -27 164 l-6 104 -76 -159 c-42 -87 -104 -217 -138 -289 -35 -71 -72 -138
-82 -148 -19 -18 -21 -18 -40 -1 -10 9 -19 20 -19 24 0 4 -33 77 -74 161 -98
204 -376 791 -376 795 0 1 7 10 16 18 24 24 215 23 236 -1 14 -16 146 -293
152 -318 4 -18 78 -165 85 -169 7 -5 43 61 82 149 63 144 151 331 161 342 8
10 39 13 121 11 140 -4 145 -10 99 -103 -17 -36 -32 -69 -32 -73 0 -4 27 18
59 49 103 101 240 153 383 147 58 -2 78 0 78 10 0 35 -100 200 -122 202 -4 0
-26 13 -50 29 -96 63 -240 67 -398 10 -49 -17 -237 -134 -264 -164 -13 -14
-28 -25 -35 -25 -6 0 -11 -4 -11 -10 0 -5 -8 -10 -17 -10 -40 0 150 156 257
210 100 52 178 70 285 67 91 -2 107 -5 167 -35z"/>
<path d="M1793 1976 c-181 -46 -336 -205 -374 -384 -6 -33 -9 -95 -6 -145 4
-79 9 -98 47 -174 47 -96 125 -180 207 -225 l50 -27 45 62 c24 34 48 67 52 74
4 8 -10 21 -42 37 -88 45 -162 151 -177 257 -9 58 16 159 52 213 77 118 211
175 332 143 l54 -15 -6 90 c-3 50 -9 93 -12 97 -12 12 -170 10 -222 -3z"/>
<path d="M1422 1970 l-103 -5 -129 -278 -128 -277 -29 62 c-16 35 -74 161
-128 280 l-100 217 -104 1 c-79 0 -102 -3 -98 -12 3 -7 105 -222 226 -476 122
-255 221 -468 221 -473 0 -5 4 -9 8 -9 7 0 475 973 469 974 -1 1 -48 -1 -105
-4z"/>
<path d="M1788 1756 c-60 -30 -106 -79 -135 -143 -21 -46 -25 -69 -24 -131 3
-117 55 -208 145 -254 23 -11 44 -25 48 -31 9 -15 125 -9 186 10 49 16 142 90
142 114 0 5 -38 9 -85 9 -50 0 -94 5 -106 13 -17 10 -23 10 -26 0 -3 -8 -22
-13 -48 -13 -36 0 -47 5 -63 28 -33 46 -84 162 -78 178 10 26 58 36 158 32
l98 -4 9 28 c5 15 13 58 16 96 l7 68 -41 13 c-60 18 -153 12 -203 -13z"/>
<path d="M1763 1530 c2 -3 19 -39 39 -81 l37 -77 45 -4 46 -3 30 83 c16 46 30
84 30 85 0 1 -52 2 -115 2 -63 0 -114 -2 -112 -5z"/>
</g>
</svg>
